<?xml version="1.0" encoding="iso-8859-1"?>
<!-- Uploaded to: SVG Repo, www.svgrepo.com, Generator: SVG Repo Mixer Tools -->
<svg fill="#000000" version="1.1" id="Capa_1" xmlns="http://www.w3.org/2000/svg" xmlns:xlink="http://www.w3.org/1999/xlink" 
	 viewBox="0 0 490 490" xml:space="preserve">
<g>
	<g>
		<g>
			<polygon points="185.4,0 185.4,36.9 427.4,36.9 427.4,452.7 383.5,383.9 185.4,452.7 185.4,489.6 463.2,489.6 463.2,0 			"/>
			<rect x="216.4" y="70.7" width="73.4" height="102.6"/>
			<path d="M322.1,97.9h68.4c5.4,0,10.1-4.3,10.1-10.1s-4.3-10.1-10.1-10.1h-68.4c-5.4,0-10.1,4.3-10.1,10.1S316.7,97.9,322.1,97.9z
				"/>
			<path d="M322.1,163.6h68.4c5.4,0,10.1-4.3,10.1-10.1c0-5.4-4.3-10.1-10.1-10.1h-68.4c-5.4,0-10.1,4.3-10.1,10.1
				C312,158.9,316.7,163.6,322.1,163.6z"/>
			<path d="M206.3,218.8c0,5.4,4.3,10.1,10.1,10.1h174.5c5.4,0,10.1-4.3,10.1-10.1s-4.3-10.1-10.1-10.1H216.4
				C211,209.1,206.3,213.3,206.3,218.8z"/>
			<path d="M216.4,294.2h174.5c5.4,0,10.1-4.3,10.1-10.1c0-5.8-4.3-10.1-10.1-10.1H216.4c-5.4,0-10.1,4.3-10.1,10.1
				C206.3,289.9,211,294.2,216.4,294.2z"/>
			<path d="M216.4,359.4h174.5c5.4,0,10.1-4.3,10.1-10.1s-4.3-10.1-10.1-10.1H216.4c-5.4,0-10.1,4.3-10.1,10.1
				S211,359.4,216.4,359.4z"/>
			<path d="M36.9,63.7h85.5c5.4,0,10.1-4.3,10.1-10.1s-4.3-10.1-10.1-10.1H36.9c-5.4,0-10.1,4.3-10.1,10.1
				C26.8,59.5,31.5,63.7,36.9,63.7z"/>
			<path d="M36.9,152.7h85.5c5.4,0,10.1-4.3,10.1-10.1s-4.3-10.1-10.1-10.1H36.9c-5.4,0-10.1,4.3-10.1,10.1S31.5,152.7,36.9,152.7z"
				/>
			<path d="M36.9,355.9h85.5c5.4,0,10.1-4.3,10.1-10.1s-4.3-10.1-10.1-10.1H36.9c-5.4,0-10.1,4.3-10.1,10.1S31.5,355.9,36.9,355.9z"
				/>
			<path d="M132.5,435.6c0-5.4-4.3-10.1-10.1-10.1H36.9c-5.4,0-10.1,4.3-10.1,10.1c0,5.4,4.3,10.1,10.1,10.1h85.5
				C127.8,445.3,132.5,441,132.5,435.6z"/>
			<path d="M82,23.7h40.4c16.3,0,29.9,13.2,29.9,29.9c0,16.3-13.2,29.9-29.9,29.9H82V113h40.4c16.3,0,29.9,13.2,29.9,29.9
				c0,16.3-13.2,29.9-29.9,29.9H82v143.4h40.4c16.3,0,29.9,13.2,29.9,29.9c0,16.3-13.2,29.9-29.9,29.9H82v29.5h40.4
				c16.3,0,29.9,13.2,29.9,29.9s-13.2,29.9-29.9,29.9H82V490h83.2V0H82V23.7z"/>
		</g>
	</g>
</g>
</svg>