<svg xmlns="http://www.w3.org/2000/svg"  viewBox="0 0 80 80" width="80px" height="80px"><path d="M 21 10 C 14.936593 10 10 14.936593 10 21 L 10 59 C 10 65.063407 14.936593 70 21 70 L 59 70 C 65.063407 70 70 65.063407 70 59 L 70 21 C 70 14.936593 65.063407 10 59 10 L 21 10 z M 21 12 L 59 12 C 63.982593 12 68 16.017407 68 21 L 68 59 C 68 63.982593 63.982593 68 59 68 L 21 68 C 16.017407 68 12 63.982593 12 59 L 12 21 C 12 16.017407 16.017407 12 21 12 z M 22 16 C 21.448 16 21 16.448 21 17 C 21 17.552 21.448 18 22 18 C 22.552 18 23 17.552 23 17 C 23 16.448 22.552 16 22 16 z M 26 16 C 25.448 16 25 16.448 25 17 C 25 17.552 25.448 18 26 18 C 26.552 18 27 17.552 27 17 C 27 16.448 26.552 16 26 16 z M 30 16 C 29.448 16 29 16.448 29 17 C 29 17.552 29.448 18 30 18 C 30.552 18 31 17.552 31 17 C 31 16.448 30.552 16 30 16 z M 34 16 C 33.448 16 33 16.448 33 17 C 33 17.552 33.448 18 34 18 C 34.552 18 35 17.552 35 17 C 35 16.448 34.552 16 34 16 z M 38 16 C 37.448 16 37 16.448 37 17 C 37 17.552 37.448 18 38 18 C 38.552 18 39 17.552 39 17 C 39 16.448 38.552 16 38 16 z M 42 16 C 41.448 16 41 16.448 41 17 C 41 17.552 41.448 18 42 18 C 42.552 18 43 17.552 43 17 C 43 16.448 42.552 16 42 16 z M 46 16 C 45.448 16 45 16.448 45 17 C 45 17.552 45.448 18 46 18 C 46.552 18 47 17.552 47 17 C 47 16.448 46.552 16 46 16 z M 50 16 C 49.448 16 49 16.448 49 17 C 49 17.552 49.448 18 50 18 C 50.552 18 51 17.552 51 17 C 51 16.448 50.552 16 50 16 z M 54 16 C 53.448 16 53 16.448 53 17 C 53 17.552 53.448 18 54 18 C 54.552 18 55 17.552 55 17 C 55 16.448 54.552 16 54 16 z M 58 16 C 57.448 16 57 16.448 57 17 C 57 17.552 57.448 18 58 18 C 58.552 18 59 17.552 59 17 C 59 16.448 58.552 16 58 16 z M 18 17 C 17.448 17 17 17.448 17 18 C 17 18.552 17.448 19 18 19 C 18.552 19 19 18.552 19 18 C 19 17.448 18.552 17 18 17 z M 62 17 C 61.448 17 61 17.448 61 18 C 61 18.552 61.448 19 62 19 C 62.552 19 63 18.552 63 18 C 63 17.448 62.552 17 62 17 z M 17 21 C 16.448 21 16 21.448 16 22 C 16 22.552 16.448 23 17 23 C 17.552 23 18 22.552 18 22 C 18 21.448 17.552 21 17 21 z M 63 21 C 62.448 21 62 21.448 62 22 C 62 22.552 62.448 23 63 23 C 63.552 23 64 22.552 64 22 C 64 21.448 63.552 21 63 21 z M 17 25 C 16.448 25 16 25.448 16 26 C 16 26.552 16.448 27 17 27 C 17.552 27 18 26.552 18 26 C 18 25.448 17.552 25 17 25 z M 63 25 C 62.448 25 62 25.448 62 26 C 62 26.552 62.448 27 63 27 C 63.552 27 64 26.552 64 26 C 64 25.448 63.552 25 63 25 z M 17 29 C 16.448 29 16 29.448 16 30 C 16 30.552 16.448 31 17 31 C 17.552 31 18 30.552 18 30 C 18 29.448 17.552 29 17 29 z M 63 29 C 62.448 29 62 29.448 62 30 C 62 30.552 62.448 31 63 31 C 63.552 31 64 30.552 64 30 C 64 29.448 63.552 29 63 29 z M 20.421875 29.001953 C 20.211875 29.001953 20 29.209016 20 29.416016 L 20 30.966797 C 20 31.174797 20.210875 31.382812 20.421875 31.382812 L 22.947266 31.382812 L 33.894531 53.792969 C 34.000531 53.895969 34.103453 54 34.314453 54 C 34.525453 54 34.631328 53.895969 34.736328 53.792969 L 40.316406 43.628906 L 45.474609 53.792969 C 45.580609 53.895969 45.683531 54 45.894531 54 C 46.104531 54 46.210453 53.895969 46.314453 53.792969 L 57.158203 31.277344 L 59.578125 31.277344 C 59.788125 31.277344 60 31.070281 60 30.863281 L 59.998047 30.863281 L 59.998047 29.416016 C 59.998047 29.208016 59.789125 29.001953 59.578125 29.001953 L 52.185547 29.001953 C 51.975547 29.001953 51.763672 29.207062 51.763672 29.414062 L 51.763672 30.966797 C 51.763672 31.174797 51.974594 31.380859 52.183594 31.380859 L 54.314453 31.380859 L 46.419922 48.189453 L 42.314453 39.892578 L 47.367188 31.382812 L 48.990234 31.382812 C 49.200234 31.382813 49.410156 31.17575 49.410156 30.96875 L 49.410156 29.417969 C 49.410156 29.209969 49.201234 29.001953 48.990234 29.001953 L 42.773438 29.001953 C 42.563437 29.001953 42.353516 29.209016 42.353516 29.416016 L 42.353516 30.966797 C 42.353516 31.174797 42.562438 31.382812 42.773438 31.382812 L 44.421875 31.382812 L 40.947266 37.195312 L 38.105469 31.382812 L 39.578125 31.382812 C 39.788125 31.382812 40 31.17575 40 30.96875 L 40 29.417969 C 40 29.208969 39.788125 29.001953 39.578125 29.001953 L 32.205078 29.001953 C 31.995078 29.001953 31.785156 29.209016 31.785156 29.416016 L 31.785156 30.966797 C 31.785156 31.174797 31.994078 31.382812 32.205078 31.382812 L 33.894531 31.382812 L 38.947266 40.929688 L 34.947266 48.191406 L 27.367188 31.382812 L 28.990234 31.382812 C 29.200234 31.382812 29.410156 31.17575 29.410156 30.96875 L 29.410156 29.417969 C 29.410156 29.209969 29.201234 29.001953 28.990234 29.001953 L 20.421875 29.001953 z M 17 33 C 16.448 33 16 33.448 16 34 C 16 34.552 16.448 35 17 35 C 17.552 35 18 34.552 18 34 C 18 33.448 17.552 33 17 33 z M 63 33 C 62.448 33 62 33.448 62 34 C 62 34.552 62.448 35 63 35 C 63.552 35 64 34.552 64 34 C 64 33.448 63.552 33 63 33 z M 17 37 C 16.448 37 16 37.448 16 38 C 16 38.552 16.448 39 17 39 C 17.552 39 18 38.552 18 38 C 18 37.448 17.552 37 17 37 z M 63 37 C 62.448 37 62 37.448 62 38 C 62 38.552 62.448 39 63 39 C 63.552 39 64 38.552 64 38 C 64 37.448 63.552 37 63 37 z M 17 41 C 16.448 41 16 41.448 16 42 C 16 42.552 16.448 43 17 43 C 17.552 43 18 42.552 18 42 C 18 41.448 17.552 41 17 41 z M 63 41 C 62.448 41 62 41.448 62 42 C 62 42.552 62.448 43 63 43 C 63.552 43 64 42.552 64 42 C 64 41.448 63.552 41 63 41 z M 17 45 C 16.448 45 16 45.448 16 46 C 16 46.552 16.448 47 17 47 C 17.552 47 18 46.552 18 46 C 18 45.448 17.552 45 17 45 z M 63 45 C 62.448 45 62 45.448 62 46 C 62 46.552 62.448 47 63 47 C 63.552 47 64 46.552 64 46 C 64 45.448 63.552 45 63 45 z M 17 49 C 16.448 49 16 49.448 16 50 C 16 50.552 16.448 51 17 51 C 17.552 51 18 50.552 18 50 C 18 49.448 17.552 49 17 49 z M 63 49 C 62.448 49 62 49.448 62 50 C 62 50.552 62.448 51 63 51 C 63.552 51 64 50.552 64 50 C 64 49.448 63.552 49 63 49 z M 17 53 C 16.448 53 16 53.448 16 54 C 16 54.552 16.448 55 17 55 C 17.552 55 18 54.552 18 54 C 18 53.448 17.552 53 17 53 z M 63 53 C 62.448 53 62 53.448 62 54 C 62 54.552 62.448 55 63 55 C 63.552 55 64 54.552 64 54 C 64 53.448 63.552 53 63 53 z M 17 57 C 16.448 57 16 57.448 16 58 C 16 58.552 16.448 59 17 59 C 17.552 59 18 58.552 18 58 C 18 57.448 17.552 57 17 57 z M 63 57 C 62.448 57 62 57.448 62 58 C 62 58.552 62.448 59 63 59 C 63.552 59 64 58.552 64 58 C 64 57.448 63.552 57 63 57 z M 18 61 C 17.448 61 17 61.448 17 62 C 17 62.552 17.448 63 18 63 C 18.552 63 19 62.552 19 62 C 19 61.448 18.552 61 18 61 z M 62 61 C 61.448 61 61 61.448 61 62 C 61 62.552 61.448 63 62 63 C 62.552 63 63 62.552 63 62 C 63 61.448 62.552 61 62 61 z M 22 62 C 21.448 62 21 62.448 21 63 C 21 63.552 21.448 64 22 64 C 22.552 64 23 63.552 23 63 C 23 62.448 22.552 62 22 62 z M 26 62 C 25.448 62 25 62.448 25 63 C 25 63.552 25.448 64 26 64 C 26.552 64 27 63.552 27 63 C 27 62.448 26.552 62 26 62 z M 30 62 C 29.448 62 29 62.448 29 63 C 29 63.552 29.448 64 30 64 C 30.552 64 31 63.552 31 63 C 31 62.448 30.552 62 30 62 z M 34 62 C 33.448 62 33 62.448 33 63 C 33 63.552 33.448 64 34 64 C 34.552 64 35 63.552 35 63 C 35 62.448 34.552 62 34 62 z M 38 62 C 37.448 62 37 62.448 37 63 C 37 63.552 37.448 64 38 64 C 38.552 64 39 63.552 39 63 C 39 62.448 38.552 62 38 62 z M 42 62 C 41.448 62 41 62.448 41 63 C 41 63.552 41.448 64 42 64 C 42.552 64 43 63.552 43 63 C 43 62.448 42.552 62 42 62 z M 46 62 C 45.448 62 45 62.448 45 63 C 45 63.552 45.448 64 46 64 C 46.552 64 47 63.552 47 63 C 47 62.448 46.552 62 46 62 z M 50 62 C 49.448 62 49 62.448 49 63 C 49 63.552 49.448 64 50 64 C 50.552 64 51 63.552 51 63 C 51 62.448 50.552 62 50 62 z M 54 62 C 53.448 62 53 62.448 53 63 C 53 63.552 53.448 64 54 64 C 54.552 64 55 63.552 55 63 C 55 62.448 54.552 62 54 62 z M 58 62 C 57.448 62 57 62.448 57 63 C 57 63.552 57.448 64 58 64 C 58.552 64 59 63.552 59 63 C 59 62.448 58.552 62 58 62 z"/></svg>