<?xml version="1.0" standalone="no"?>
<!DOCTYPE svg PUBLIC "-//W3C//DTD SVG 20010904//EN"
 "http://www.w3.org/TR/2001/REC-SVG-20010904/DTD/svg10.dtd">
<svg version="1.0" xmlns="http://www.w3.org/2000/svg"
 width="512.000000pt" height="512.000000pt" viewBox="0 0 512.000000 512.000000"
 preserveAspectRatio="xMidYMid meet">

<g transform="translate(0.000000,512.000000) scale(0.100000,-0.100000)"
fill="#000000" stroke="none">
<path d="M2464 4580 c-34 -5 -93 -19 -130 -33 -109 -38 -1888 -1025 -1952
-1082 -74 -67 -104 -130 -110 -230 -3 -66 0 -91 19 -140 38 -101 97 -148 374
-301 l240 -132 6 -528 c4 -443 8 -537 21 -579 62 -198 171 -350 325 -456 56
-39 170 -92 248 -115 55 -17 125 -18 853 -21 l792 -4 0 -158 c0 -147 2 -160
23 -192 32 -49 105 -83 158 -74 53 9 115 64 129 113 5 21 10 99 10 174 l0 137
38 6 c163 26 302 86 414 179 117 97 197 215 251 371 l32 90 3 527 3 527 242
133 c278 153 338 201 375 301 50 131 20 262 -82 361 -55 54 -152 110 -946 549
-487 269 -912 502 -946 517 -115 54 -266 77 -390 60z m206 -330 c19 -5 445
-236 945 -512 678 -375 910 -508 910 -521 0 -13 -150 -101 -575 -336 l-575
-319 -365 363 c-319 318 -370 365 -407 375 -76 20 -148 -12 -183 -80 -22 -44
-25 -85 -10 -127 6 -15 160 -177 342 -359 l330 -332 -103 -57 c-57 -32 -139
-77 -182 -101 -44 -24 -99 -51 -123 -59 -58 -20 -177 -18 -235 3 -25 9 -451
241 -948 516 -654 362 -901 503 -899 514 2 9 118 79 258 157 1222 677 1577
870 1623 881 54 14 137 11 197 -6z m-897 -2067 c273 -151 530 -287 570 -301
64 -23 88 -26 212 -26 176 -1 224 13 436 130 84 46 154 84 156 84 2 0 3 -178
3 -395 l0 -395 -745 0 c-513 0 -760 3 -797 11 -167 36 -308 165 -358 328 -18
58 -20 94 -20 462 l0 400 23 -12 c12 -6 246 -135 520 -286z m2098 -563 c-49
-161 -184 -288 -347 -326 l-54 -12 2 485 3 485 205 114 205 114 3 -398 c2
-371 1 -401 -17 -462z"/>
</g>
</svg>
